# xmcd
# 
# Track frame offsets:
#     150
#     16142
#     34562
#     53948
#     75515
#     102433
#     121289
#     137490
# 
# Disc length: 2077
# 
# Revision: 1
# Processed by: cddbd v1.5.2PL0 Copyright (c) Steve Scherf et al.
# Submitted via: BonkEnc v1.0.6
# 
DISCID=59081b08
DTITLE=Martina McBride - Live in Concert
DYEAR=2008
DGENRE=Country
TTITLE0=Happy Girl
TTITLE1=Anyway
TTITLE2=Concrete Angel
TTITLE3=From the Ashes
TTITLE4=Whatever You Say
TTITLE5=This One's for the Girls
TTITLE6=Independence Day
TTITLE7=Hit Me with Your Best Shot
EXTD=YEAR: 2008
EXTT0=
EXTT1=
EXTT2=
EXTT3=
EXTT4=
EXTT5=
EXTT6=
EXTT7=
PLAYORDER=
